<svg xmlns="http://www.w3.org/2000/svg" width="1920" height="1080"><path d="M-78,-238L43,-233L335,-248Z" fill="#cf5554" stroke="#cf5554" stroke-width="1.51"/><path d="M858,1308L481,1318L1071,1315Z" fill="#6b3f3e" stroke="#6b3f3e" stroke-width="1.51"/><path d="M711,-218L1023,-212L1289,-241Z" fill="#ae504f" stroke="#ae504f" stroke-width="1.51"/><path d="M335,-248L711,-218L1289,-241Z" fill="#ba5251" stroke="#ba5251" stroke-width="1.51"/><path d="M1071,1315L481,1318L1405,1322Z" fill="#623d3c" stroke="#623d3c" stroke-width="1.51"/><path d="M1292,1310L1071,1315L1405,1322Z" fill="#563939" stroke="#563939" stroke-width="1.51"/><path d="M1289,-241L1460,-216L1736,-225Z" fill="#964746" stroke="#964746" stroke-width="1.51"/><path d="M1289,-241L1736,-225L2061,-218Z" fill="#8d4441" stroke="#8d4441" stroke-width="1.51"/><path d="M1736,-225L1819,-220L2061,-218Z" fill="#8a413f" stroke="#8a413f" stroke-width="1.51"/><path d="M1819,-220L1959,-209L2061,-218Z" fill="#88413f" stroke="#88413f" stroke-width="1.51"/><path d="M2073,969L2074,1142L2098,873Z" fill="#463131" stroke="#463131" stroke-width="1.51"/><path d="M2061,-218L2012,-114L2098,-54Z" fill="#844140" stroke="#844140" stroke-width="1.51"/><path d="M2098,873L2074,1142L2102,1250Z" fill="#422f2f" stroke="#422f2f" stroke-width="1.51"/><path d="M2009,485L1975,586L2138,622Z" fill="#633d3d" stroke="#633d3d" stroke-width="1.51"/><path d="M1983,721L2063,755L2138,622Z" fill="#593b3b" stroke="#593b3b" stroke-width="1.51"/><path d="M2098,873L2102,1250L2138,622Z" fill="#4b3333" stroke="#4b3333" stroke-width="1.51"/><path d="M2063,755L2098,873L2138,622Z" fill="#553939" stroke="#553939" stroke-width="1.51"/><path d="M2009,485L2138,622L2140,445Z" fill="#663e3e" stroke="#663e3e" stroke-width="1.51"/><path d="M2103,317L2009,485L2140,445Z" fill="#6d403f" stroke="#6d403f" stroke-width="1.51"/><path d="M2073,43L2001,105L2143,230Z" fill="#7b4544" stroke="#7b4544" stroke-width="1.51"/><path d="M2001,105L2007,200L2143,230Z" fill="#794444" stroke="#794444" stroke-width="1.51"/><path d="M2007,200L2103,317L2143,230Z" fill="#764242" stroke="#764242" stroke-width="1.51"/><path d="M2098,-54L2073,43L2143,230Z" fill="#7d4545" stroke="#7d4545" stroke-width="1.51"/><path d="M2103,317L2140,445L2143,230Z" fill="#714140" stroke="#714140" stroke-width="1.51"/><path d="M1975,586L1983,721L2138,622Z" fill="#5e3c3c" stroke="#5e3c3c" stroke-width="1.51"/><path d="M244,1298L-75,1318L481,1318Z" fill="#7e4544" stroke="#7e4544" stroke-width="1.51"/><path d="M2073,969L1961,1006L2074,1142Z" fill="#443030" stroke="#443030" stroke-width="1.51"/><path d="M2010,879L2073,969L2098,873Z" fill="#4c3434" stroke="#4c3434" stroke-width="1.51"/><path d="M2063,755L2010,879L2098,873Z" fill="#513636" stroke="#513636" stroke-width="1.51"/><path d="M2012,-114L2073,43L2098,-54Z" fill="#814442" stroke="#814442" stroke-width="1.51"/><path d="M2074,1142L2011,1273L2102,1250Z" fill="#3f2d2d" stroke="#3f2d2d" stroke-width="1.51"/><path d="M1942,326L2009,485L2103,317Z" fill="#714141" stroke="#714141" stroke-width="1.51"/><path d="M2007,200L1942,326L2103,317Z" fill="#764342" stroke="#764342" stroke-width="1.51"/><path d="M1949,1191L2011,1273L2074,1142Z" fill="#412d2d" stroke="#412d2d" stroke-width="1.51"/><path d="M1844,-28L2001,105L2012,-114Z" fill="#834644" stroke="#834644" stroke-width="1.51"/><path d="M1959,-209L2012,-114L2061,-218Z" fill="#86413f" stroke="#86413f" stroke-width="1.51"/><path d="M1983,721L2010,879L2063,755Z" fill="#553939" stroke="#553939" stroke-width="1.51"/><path d="M2010,879L1961,1006L2073,969Z" fill="#4a3333" stroke="#4a3333" stroke-width="1.51"/><path d="M2012,-114L2001,105L2073,43Z" fill="#804645" stroke="#804645" stroke-width="1.51"/><path d="M1961,1006L1949,1191L2074,1142Z" fill="#432f2f" stroke="#432f2f" stroke-width="1.51"/><path d="M1815,1102L1949,1191L1961,1006Z" fill="#453131" stroke="#453131" stroke-width="1.51"/><path d="M1840,720L1874,918L1983,721Z" fill="#563a3a" stroke="#563a3a" stroke-width="1.51"/><path d="M1844,-28L1830,29L2001,105Z" fill="#824847" stroke="#824847" stroke-width="1.51"/><path d="M2001,105L1865,230L2007,200Z" fill="#7b4545" stroke="#7b4545" stroke-width="1.51"/><path d="M1865,230L1942,326L2007,200Z" fill="#784444" stroke="#784444" stroke-width="1.51"/><path d="M1942,326L1860,331L2009,485Z" fill="#734242" stroke="#734242" stroke-width="1.51"/><path d="M1860,331L1793,475L2009,485Z" fill="#704242" stroke="#704242" stroke-width="1.51"/><path d="M1983,721L1874,918L2010,879Z" fill="#523737" stroke="#523737" stroke-width="1.51"/><path d="M1874,918L1961,1006L2010,879Z" fill="#4c3535" stroke="#4c3535" stroke-width="1.51"/><path d="M1949,1191L1805,1319L2011,1273Z" fill="#412d2d" stroke="#412d2d" stroke-width="1.51"/><path d="M1959,-209L1844,-28L2012,-114Z" fill="#854342" stroke="#854342" stroke-width="1.51"/><path d="M1793,475L1975,586L2009,485Z" fill="#694040" stroke="#694040" stroke-width="1.51"/><path d="M1975,586L1840,720L1983,721Z" fill="#5d3d3d" stroke="#5d3d3d" stroke-width="1.51"/><path d="M1830,29L1865,230L2001,105Z" fill="#7e4747" stroke="#7e4747" stroke-width="1.51"/><path d="M1526,1274L1405,1322L1805,1319Z" fill="#483232" stroke="#483232" stroke-width="1.51"/><path d="M1819,-220L1844,-28L1959,-209Z" fill="#874341" stroke="#874341" stroke-width="1.51"/><path d="M1806,584L1840,720L1975,586Z" fill="#623e3e" stroke="#623e3e" stroke-width="1.51"/><path d="M1793,475L1806,584L1975,586Z" fill="#684040" stroke="#684040" stroke-width="1.51"/><path d="M1874,918L1799,1010L1961,1006Z" fill="#4a3434" stroke="#4a3434" stroke-width="1.51"/><path d="M1799,1010L1815,1102L1961,1006Z" fill="#473232" stroke="#473232" stroke-width="1.51"/><path d="M1865,230L1860,331L1942,326Z" fill="#774444" stroke="#774444" stroke-width="1.51"/><path d="M1815,1102L1805,1319L1949,1191Z" fill="#432f2f" stroke="#432f2f" stroke-width="1.51"/><path d="M1460,-216L1566,-193L1736,-225Z" fill="#914644" stroke="#914644" stroke-width="1.51"/><path d="M1664,1262L1526,1274L1805,1319Z" fill="#453030" stroke="#453030" stroke-width="1.51"/><path d="M1657,1192L1664,1262L1805,1319Z" fill="#443030" stroke="#443030" stroke-width="1.51"/><path d="M1657,1192L1805,1319L1815,1102Z" fill="#453030" stroke="#453030" stroke-width="1.51"/><path d="M1691,745L1686,836L1840,720Z" fill="#5a3d3d" stroke="#5a3d3d" stroke-width="1.51"/><path d="M1806,584L1741,651L1840,720Z" fill="#613f3f" stroke="#613f3f" stroke-width="1.51"/><path d="M1819,-220L1707,-104L1844,-28Z" fill="#884543" stroke="#884543" stroke-width="1.51"/><path d="M1830,29L1734,74L1865,230Z" fill="#814948" stroke="#814948" stroke-width="1.51"/><path d="M1734,74L1663,227L1865,230Z" fill="#7f4847" stroke="#7f4847" stroke-width="1.51"/><path d="M1686,347L1860,331L1865,230Z" fill="#784645" stroke="#784645" stroke-width="1.51"/><path d="M1840,720L1686,836L1874,918Z" fill="#563a3a" stroke="#563a3a" stroke-width="1.51"/><path d="M1686,836L1799,1010L1874,918Z" fill="#4f3737" stroke="#4f3737" stroke-width="1.51"/><path d="M1686,347L1793,475L1860,331Z" fill="#754544" stroke="#754544" stroke-width="1.51"/><path d="M1663,227L1686,347L1865,230Z" fill="#7b4747" stroke="#7b4747" stroke-width="1.51"/><path d="M1736,-225L1707,-104L1819,-220Z" fill="#8b4442" stroke="#8b4442" stroke-width="1.51"/><path d="M1707,-104L1830,29L1844,-28Z" fill="#864746" stroke="#864746" stroke-width="1.51"/><path d="M1793,475L1734,506L1806,584Z" fill="#6b4242" stroke="#6b4242" stroke-width="1.51"/><path d="M1707,-104L1734,74L1830,29Z" fill="#864948" stroke="#864948" stroke-width="1.51"/><path d="M1741,651L1691,745L1840,720Z" fill="#5f3e3e" stroke="#5f3e3e" stroke-width="1.51"/><path d="M1799,1010L1737,1051L1815,1102Z" fill="#483333" stroke="#483333" stroke-width="1.51"/><path d="M1140,1305L1071,1315L1292,1310Z" fill="#5a3a3a" stroke="#5a3a3a" stroke-width="1.51"/><path d="M1686,836L1737,1051L1799,1010Z" fill="#4d3636" stroke="#4d3636" stroke-width="1.51"/><path d="M1737,1051L1657,1192L1815,1102Z" fill="#473333" stroke="#473333" stroke-width="1.51"/><path d="M1686,836L1599,988L1737,1051Z" fill="#4f3837" stroke="#4f3837" stroke-width="1.51"/><path d="M1686,347L1734,506L1793,475Z" fill="#714444" stroke="#714444" stroke-width="1.51"/><path d="M1734,506L1741,651L1806,584Z" fill="#674140" stroke="#674140" stroke-width="1.51"/><path d="M1686,347L1531,475L1734,506Z" fill="#744645" stroke="#744645" stroke-width="1.51"/><path d="M1531,475L1604,567L1734,506Z" fill="#704544" stroke="#704544" stroke-width="1.51"/><path d="M1707,-104L1555,-46L1734,74Z" fill="#884a49" stroke="#884a49" stroke-width="1.51"/><path d="M1555,-46L1602,105L1734,74Z" fill="#884c4b" stroke="#884c4b" stroke-width="1.51"/><path d="M1602,105L1663,227L1734,74Z" fill="#824a4a" stroke="#824a4a" stroke-width="1.51"/><path d="M1566,-193L1707,-104L1736,-225Z" fill="#8d4643" stroke="#8d4643" stroke-width="1.51"/><path d="M1567,1162L1657,1192L1737,1051Z" fill="#493433" stroke="#493433" stroke-width="1.51"/><path d="M1599,988L1567,1162L1737,1051Z" fill="#4b3535" stroke="#4b3535" stroke-width="1.51"/><path d="M1734,506L1604,567L1741,651Z" fill="#694242" stroke="#694242" stroke-width="1.51"/><path d="M1604,567L1691,745L1741,651Z" fill="#644040" stroke="#644040" stroke-width="1.51"/><path d="M1540,909L1599,988L1686,836Z" fill="#553a3a" stroke="#553a3a" stroke-width="1.51"/><path d="M1594,335L1531,475L1686,347Z" fill="#7b4847" stroke="#7b4847" stroke-width="1.51"/><path d="M1663,227L1594,335L1686,347Z" fill="#7c4848" stroke="#7c4848" stroke-width="1.51"/><path d="M1604,567L1537,725L1691,745Z" fill="#654141" stroke="#654141" stroke-width="1.51"/><path d="M1566,-193L1555,-46L1707,-104Z" fill="#8e4847" stroke="#8e4847" stroke-width="1.51"/><path d="M1537,725L1686,836L1691,745Z" fill="#5d3e3e" stroke="#5d3e3e" stroke-width="1.51"/><path d="M1537,725L1540,909L1686,836Z" fill="#5c3d3d" stroke="#5c3d3d" stroke-width="1.51"/><path d="M1602,105L1539,169L1663,227Z" fill="#844b4b" stroke="#844b4b" stroke-width="1.51"/><path d="M1539,169L1594,335L1663,227Z" fill="#814a4a" stroke="#814a4a" stroke-width="1.51"/><path d="M1657,1192L1567,1162L1664,1262Z" fill="#483333" stroke="#483333" stroke-width="1.51"/><path d="M1567,1162L1526,1274L1664,1262Z" fill="#493333" stroke="#493333" stroke-width="1.51"/><path d="M1537,725L1415,833L1540,909Z" fill="#603f3f" stroke="#603f3f" stroke-width="1.51"/><path d="M1468,-83L1555,-46L1566,-193Z" fill="#914b49" stroke="#914b49" stroke-width="1.51"/><path d="M1465,987L1456,1149L1567,1162Z" fill="#513737" stroke="#513737" stroke-width="1.51"/><path d="M1539,169L1477,343L1594,335Z" fill="#824b4a" stroke="#824b4a" stroke-width="1.51"/><path d="M1477,343L1531,475L1594,335Z" fill="#7e4949" stroke="#7e4949" stroke-width="1.51"/><path d="M1465,987L1567,1162L1599,988Z" fill="#503737" stroke="#503737" stroke-width="1.51"/><path d="M1555,-46L1451,47L1602,105Z" fill="#8d4e4d" stroke="#8d4e4d" stroke-width="1.51"/><path d="M1449,636L1537,725L1604,567Z" fill="#6b4444" stroke="#6b4444" stroke-width="1.51"/><path d="M1531,475L1449,636L1604,567Z" fill="#714645" stroke="#714645" stroke-width="1.51"/><path d="M1451,47L1539,169L1602,105Z" fill="#8a4e4d" stroke="#8a4e4d" stroke-width="1.51"/><path d="M1540,909L1465,987L1599,988Z" fill="#553a3a" stroke="#553a3a" stroke-width="1.51"/><path d="M1440,480L1449,636L1531,475Z" fill="#764847" stroke="#764847" stroke-width="1.51"/><path d="M1392,202L1477,343L1539,169Z" fill="#884d4c" stroke="#884d4c" stroke-width="1.51"/><path d="M1460,-216L1468,-83L1566,-193Z" fill="#954947" stroke="#954947" stroke-width="1.51"/><path d="M1456,1149L1526,1274L1567,1162Z" fill="#4d3535" stroke="#4d3535" stroke-width="1.51"/><path d="M1477,343L1440,480L1531,475Z" fill="#7d4949" stroke="#7d4949" stroke-width="1.51"/><path d="M1402,773L1415,833L1537,725Z" fill="#654242" stroke="#654242" stroke-width="1.51"/><path d="M1468,-83L1451,47L1555,-46Z" fill="#914d4c" stroke="#914d4c" stroke-width="1.51"/><path d="M1023,-212L1153,-205L1289,-241Z" fill="#a74f4d" stroke="#a74f4d" stroke-width="1.51"/><path d="M1451,47L1392,202L1539,169Z" fill="#8c4f4e" stroke="#8c4f4e" stroke-width="1.51"/><path d="M1415,833L1465,987L1540,909Z" fill="#5b3d3d" stroke="#5b3d3d" stroke-width="1.51"/><path d="M1449,636L1402,773L1537,725Z" fill="#694444" stroke="#694444" stroke-width="1.51"/><path d="M1456,1149L1405,1322L1526,1274Z" fill="#4f3636" stroke="#4f3636" stroke-width="1.51"/><path d="M1440,480L1338,598L1449,636Z" fill="#764848" stroke="#764848" stroke-width="1.51"/><path d="M1313,109L1392,202L1451,47Z" fill="#915150" stroke="#915150" stroke-width="1.51"/><path d="M1266,1152L1405,1322L1456,1149Z" fill="#543838" stroke="#543838" stroke-width="1.51"/><path d="M1415,833L1327,843L1465,987Z" fill="#60403f" stroke="#60403f" stroke-width="1.51"/><path d="M1287,1008L1456,1149L1465,987Z" fill="#563a3a" stroke="#563a3a" stroke-width="1.51"/><path d="M1460,-216L1298,-76L1468,-83Z" fill="#984d4b" stroke="#984d4b" stroke-width="1.51"/><path d="M1298,-76L1451,47L1468,-83Z" fill="#954f4e" stroke="#954f4e" stroke-width="1.51"/><path d="M1392,202L1306,305L1477,343Z" fill="#894e4d" stroke="#894e4d" stroke-width="1.51"/><path d="M1334,463L1440,480L1477,343Z" fill="#804b4a" stroke="#804b4a" stroke-width="1.51"/><path d="M1306,305L1334,463L1477,343Z" fill="#864d4c" stroke="#864d4c" stroke-width="1.51"/><path d="M1266,1152L1292,1310L1405,1322Z" fill="#553838" stroke="#553838" stroke-width="1.51"/><path d="M1287,1008L1266,1152L1456,1149Z" fill="#583b3b" stroke="#583b3b" stroke-width="1.51"/><path d="M1289,-241L1298,-76L1460,-216Z" fill="#9b4c4b" stroke="#9b4c4b" stroke-width="1.51"/><path d="M1327,843L1287,1008L1465,987Z" fill="#5e3e3e" stroke="#5e3e3e" stroke-width="1.51"/><path d="M1338,598L1295,742L1402,773Z" fill="#6f4747" stroke="#6f4747" stroke-width="1.51"/><path d="M1338,598L1402,773L1449,636Z" fill="#6f4746" stroke="#6f4746" stroke-width="1.51"/><path d="M1334,463L1338,598L1440,480Z" fill="#7c4a4a" stroke="#7c4a4a" stroke-width="1.51"/><path d="M1298,-76L1313,109L1451,47Z" fill="#965151" stroke="#965151" stroke-width="1.51"/><path d="M1313,109L1335,201L1392,202Z" fill="#905150" stroke="#905150" stroke-width="1.51"/><path d="M1335,201L1306,305L1392,202Z" fill="#8d504f" stroke="#8d504f" stroke-width="1.51"/><path d="M1402,773L1327,843L1415,833Z" fill="#664342" stroke="#664342" stroke-width="1.51"/><path d="M1295,742L1327,843L1402,773Z" fill="#6a4444" stroke="#6a4444" stroke-width="1.51"/><path d="M1298,-76L1198,-37L1313,109Z" fill="#9b5352" stroke="#9b5352" stroke-width="1.51"/><path d="M1198,-37L1168,51L1313,109Z" fill="#9c5554" stroke="#9c5554" stroke-width="1.51"/><path d="M1185,863L1287,1008L1327,843Z" fill="#654242" stroke="#654242" stroke-width="1.51"/><path d="M1306,305L1189,341L1334,463Z" fill="#8b4f4e" stroke="#8b4f4e" stroke-width="1.51"/><path d="M1148,498L1159,574L1334,463Z" fill="#834e4d" stroke="#834e4d" stroke-width="1.51"/><path d="M1165,701L1295,742L1338,598Z" fill="#744949" stroke="#744949" stroke-width="1.51"/><path d="M1159,574L1165,701L1338,598Z" fill="#7a4b4b" stroke="#7a4b4b" stroke-width="1.51"/><path d="M1334,463L1159,574L1338,598Z" fill="#7e4c4b" stroke="#7e4c4b" stroke-width="1.51"/><path d="M1289,-241L1153,-205L1298,-76Z" fill="#a14e4d" stroke="#a14e4d" stroke-width="1.51"/><path d="M1189,341L1148,498L1334,463Z" fill="#894f4e" stroke="#894f4e" stroke-width="1.51"/><path d="M1313,109L1117,170L1335,201Z" fill="#955352" stroke="#955352" stroke-width="1.51"/><path d="M1117,170L1306,305L1335,201Z" fill="#925251" stroke="#925251" stroke-width="1.51"/><path d="M1117,170L1189,341L1306,305Z" fill="#935252" stroke="#935252" stroke-width="1.51"/><path d="M1208,1135L1266,1152L1287,1008Z" fill="#5c3d3d" stroke="#5c3d3d" stroke-width="1.51"/><path d="M1295,742L1185,863L1327,843Z" fill="#6b4544" stroke="#6b4544" stroke-width="1.51"/><path d="M1266,1152L1140,1305L1292,1310Z" fill="#583a3a" stroke="#583a3a" stroke-width="1.51"/><path d="M1153,-205L1198,-37L1298,-76Z" fill="#a15150" stroke="#a15150" stroke-width="1.51"/><path d="M1168,51L1117,170L1313,109Z" fill="#9a5554" stroke="#9a5554" stroke-width="1.51"/><path d="M1208,1135L1140,1305L1266,1152Z" fill="#5b3c3c" stroke="#5b3c3c" stroke-width="1.51"/><path d="M1165,701L1185,863L1295,742Z" fill="#714847" stroke="#714847" stroke-width="1.51"/><path d="M1116,1033L1208,1135L1287,1008Z" fill="#5f3f3f" stroke="#5f3f3f" stroke-width="1.51"/><path d="M1185,863L1116,1033L1287,1008Z" fill="#644141" stroke="#644141" stroke-width="1.51"/><path d="M761,1286L481,1318L858,1308Z" fill="#704040" stroke="#704040" stroke-width="1.51"/><path d="M1067,1004L1116,1033L1185,863Z" fill="#684242" stroke="#684242" stroke-width="1.51"/><path d="M1117,170L1023,224L1189,341Z" fill="#985453" stroke="#985453" stroke-width="1.51"/><path d="M1058,456L1148,498L1189,341Z" fill="#8d5050" stroke="#8d5050" stroke-width="1.51"/><path d="M1153,-205L1039,-75L1198,-37Z" fill="#a55251" stroke="#a55251" stroke-width="1.51"/><path d="M1071,1192L1140,1305L1208,1135Z" fill="#5e3d3d" stroke="#5e3d3d" stroke-width="1.51"/><path d="M1116,1033L1071,1192L1208,1135Z" fill="#613e3e" stroke="#613e3e" stroke-width="1.51"/><path d="M1165,701L1016,696L1185,863Z" fill="#764a49" stroke="#764a49" stroke-width="1.51"/><path d="M1023,224L997,312L1189,341Z" fill="#985353" stroke="#985353" stroke-width="1.51"/><path d="M1039,-75L1168,51L1198,-37Z" fill="#a25454" stroke="#a25454" stroke-width="1.51"/><path d="M1159,574L1044,594L1165,701Z" fill="#804d4c" stroke="#804d4c" stroke-width="1.51"/><path d="M989,917L1067,1004L1185,863Z" fill="#6c4444" stroke="#6c4444" stroke-width="1.51"/><path d="M1016,696L989,917L1185,863Z" fill="#744847" stroke="#744847" stroke-width="1.51"/><path d="M997,312L1058,456L1189,341Z" fill="#945251" stroke="#945251" stroke-width="1.51"/><path d="M1023,-212L1039,-75L1153,-205Z" fill="#a95150" stroke="#a95150" stroke-width="1.51"/><path d="M1044,594L1016,696L1165,701Z" fill="#7f4c4c" stroke="#7f4c4c" stroke-width="1.51"/><path d="M1004,68L1117,170L1168,51Z" fill="#a05756" stroke="#a05756" stroke-width="1.51"/><path d="M1039,-75L1004,68L1168,51Z" fill="#a45655" stroke="#a45655" stroke-width="1.51"/><path d="M1148,498L1044,594L1159,574Z" fill="#854e4d" stroke="#854e4d" stroke-width="1.51"/><path d="M1071,1192L1071,1315L1140,1305Z" fill="#5f3c3c" stroke="#5f3c3c" stroke-width="1.51"/><path d="M711,-218L929,-174L1023,-212Z" fill="#b45251" stroke="#b45251" stroke-width="1.51"/><path d="M1058,456L1044,594L1148,498Z" fill="#894f4f" stroke="#894f4f" stroke-width="1.51"/><path d="M1067,1004L1071,1192L1116,1033Z" fill="#644040" stroke="#644040" stroke-width="1.51"/><path d="M335,-248L513,-201L711,-218Z" fill="#c35554" stroke="#c35554" stroke-width="1.51"/><path d="M903,786L989,917L1016,696Z" fill="#7a4a4a" stroke="#7a4a4a" stroke-width="1.51"/><path d="M1004,68L1023,224L1117,170Z" fill="#a05656" stroke="#a05656" stroke-width="1.51"/><path d="M903,786L894,841L989,917Z" fill="#794948" stroke="#794948" stroke-width="1.51"/><path d="M1004,68L912,170L1023,224Z" fill="#a35756" stroke="#a35756" stroke-width="1.51"/><path d="M1023,-212L929,-174L1039,-75Z" fill="#ac5251" stroke="#ac5251" stroke-width="1.51"/><path d="M923,466L1044,594L1058,456Z" fill="#8e5050" stroke="#8e5050" stroke-width="1.51"/><path d="M997,312L923,466L1058,456Z" fill="#965252" stroke="#965252" stroke-width="1.51"/><path d="M1067,1004L912,1006L1071,1192Z" fill="#674141" stroke="#674141" stroke-width="1.51"/><path d="M912,1006L868,1134L1071,1192Z" fill="#6a4141" stroke="#6a4141" stroke-width="1.51"/><path d="M858,1308L1071,1315L1071,1192Z" fill="#633d3d" stroke="#633d3d" stroke-width="1.51"/><path d="M868,1134L858,1308L1071,1192Z" fill="#683f3f" stroke="#683f3f" stroke-width="1.51"/><path d="M926,98L912,170L1004,68Z" fill="#a75857" stroke="#a75857" stroke-width="1.51"/><path d="M920,-66L1004,68L1039,-75Z" fill="#a95655" stroke="#a95655" stroke-width="1.51"/><path d="M989,917L912,1006L1067,1004Z" fill="#6e4343" stroke="#6e4343" stroke-width="1.51"/><path d="M929,-174L920,-66L1039,-75Z" fill="#ad5453" stroke="#ad5453" stroke-width="1.51"/><path d="M876,594L1016,696L1044,594Z" fill="#864f4e" stroke="#864f4e" stroke-width="1.51"/><path d="M923,466L876,594L1044,594Z" fill="#8e5050" stroke="#8e5050" stroke-width="1.51"/><path d="M912,170L997,312L1023,224Z" fill="#9f5655" stroke="#9f5655" stroke-width="1.51"/><path d="M612,1274L481,1318L761,1286Z" fill="#734141" stroke="#734141" stroke-width="1.51"/><path d="M855,299L923,466L997,312Z" fill="#9c5454" stroke="#9c5454" stroke-width="1.51"/><path d="M912,170L855,299L997,312Z" fill="#a15655" stroke="#a15655" stroke-width="1.51"/><path d="M920,-66L926,98L1004,68Z" fill="#aa5858" stroke="#aa5858" stroke-width="1.51"/><path d="M876,594L903,786L1016,696Z" fill="#844e4d" stroke="#844e4d" stroke-width="1.51"/><path d="M894,841L912,1006L989,917Z" fill="#744746" stroke="#744746" stroke-width="1.51"/><path d="M876,594L782,753L903,786Z" fill="#864e4e" stroke="#864e4e" stroke-width="1.51"/><path d="M894,841L771,907L912,1006Z" fill="#784847" stroke="#784847" stroke-width="1.51"/><path d="M855,299L765,370L923,466Z" fill="#9f5554" stroke="#9f5554" stroke-width="1.51"/><path d="M765,370L764,436L923,466Z" fill="#9e5454" stroke="#9e5454" stroke-width="1.51"/><path d="M764,436L876,594L923,466Z" fill="#965352" stroke="#965352" stroke-width="1.51"/><path d="M920,-66L791,25L926,98Z" fill="#ae5958" stroke="#ae5958" stroke-width="1.51"/><path d="M723,-32L920,-66L929,-174Z" fill="#b25655" stroke="#b25655" stroke-width="1.51"/><path d="M711,-218L723,-32L929,-174Z" fill="#b75554" stroke="#b75554" stroke-width="1.51"/><path d="M791,25L912,170L926,98Z" fill="#ab5959" stroke="#ab5959" stroke-width="1.51"/><path d="M761,1286L858,1308L868,1134Z" fill="#6c4040" stroke="#6c4040" stroke-width="1.51"/><path d="M723,-32L791,25L920,-66Z" fill="#b25858" stroke="#b25858" stroke-width="1.51"/><path d="M723,973L868,1134L912,1006Z" fill="#714444" stroke="#714444" stroke-width="1.51"/><path d="M771,907L723,973L912,1006Z" fill="#774746" stroke="#774746" stroke-width="1.51"/><path d="M726,232L855,299L912,170Z" fill="#a75757" stroke="#a75757" stroke-width="1.51"/><path d="M791,25L726,232L912,170Z" fill="#ac5959" stroke="#ac5959" stroke-width="1.51"/><path d="M728,1171L761,1286L868,1134Z" fill="#6f4141" stroke="#6f4141" stroke-width="1.51"/><path d="M782,753L894,841L903,786Z" fill="#804c4b" stroke="#804c4b" stroke-width="1.51"/><path d="M721,589L782,753L876,594Z" fill="#8e5050" stroke="#8e5050" stroke-width="1.51"/><path d="M764,436L721,589L876,594Z" fill="#965252" stroke="#965252" stroke-width="1.51"/><path d="M782,753L771,907L894,841Z" fill="#804b4a" stroke="#804b4a" stroke-width="1.51"/><path d="M723,973L728,1171L868,1134Z" fill="#724343" stroke="#724343" stroke-width="1.51"/><path d="M726,232L765,370L855,299Z" fill="#a65656" stroke="#a65656" stroke-width="1.51"/><path d="M653,-178L655,-78L711,-218Z" fill="#bc5555" stroke="#bc5555" stroke-width="1.51"/><path d="M711,-218L655,-78L723,-32Z" fill="#ba5756" stroke="#ba5756" stroke-width="1.51"/><path d="M723,973L664,1013L728,1171Z" fill="#774545" stroke="#774545" stroke-width="1.51"/><path d="M633,502L721,589L764,436Z" fill="#9c5453" stroke="#9c5453" stroke-width="1.51"/><path d="M726,232L635,330L765,370Z" fill="#a95757" stroke="#a95757" stroke-width="1.51"/><path d="M721,589L633,729L782,753Z" fill="#8f5050" stroke="#8f5050" stroke-width="1.51"/><path d="M657,902L771,907L782,753Z" fill="#824b4b" stroke="#824b4b" stroke-width="1.51"/><path d="M633,729L657,902L782,753Z" fill="#884e4d" stroke="#884e4d" stroke-width="1.51"/><path d="M626,55L726,232L791,25Z" fill="#b25a5a" stroke="#b25a5a" stroke-width="1.51"/><path d="M723,-32L626,55L791,25Z" fill="#b65b5a" stroke="#b65b5a" stroke-width="1.51"/><path d="M626,55L604,200L726,232Z" fill="#b25a5a" stroke="#b25a5a" stroke-width="1.51"/><path d="M728,1171L612,1274L761,1286Z" fill="#724141" stroke="#724141" stroke-width="1.51"/><path d="M635,330L764,436L765,370Z" fill="#a65656" stroke="#a65656" stroke-width="1.51"/><path d="M657,902L723,973L771,907Z" fill="#7e4948" stroke="#7e4948" stroke-width="1.51"/><path d="M664,1013L595,1115L728,1171Z" fill="#774544" stroke="#774544" stroke-width="1.51"/><path d="M635,330L633,502L764,436Z" fill="#a35655" stroke="#a35655" stroke-width="1.51"/><path d="M513,-201L653,-178L711,-218Z" fill="#bf5554" stroke="#bf5554" stroke-width="1.51"/><path d="M585,617L633,729L721,589Z" fill="#945252" stroke="#945252" stroke-width="1.51"/><path d="M604,200L635,330L726,232Z" fill="#ad5858" stroke="#ad5858" stroke-width="1.51"/><path d="M595,1115L612,1274L728,1171Z" fill="#744343" stroke="#744343" stroke-width="1.51"/><path d="M655,-78L626,55L723,-32Z" fill="#b85a5a" stroke="#b85a5a" stroke-width="1.51"/><path d="M657,902L664,1013L723,973Z" fill="#7c4848" stroke="#7c4848" stroke-width="1.51"/><path d="M633,502L585,617L721,589Z" fill="#995453" stroke="#995453" stroke-width="1.51"/><path d="M56,1288L-75,1318L244,1298Z" fill="#814342" stroke="#814342" stroke-width="1.51"/><path d="M510,490L633,502L635,330Z" fill="#a55756" stroke="#a55756" stroke-width="1.51"/><path d="M504,-48L626,55L655,-78Z" fill="#ba5b5b" stroke="#ba5b5b" stroke-width="1.51"/><path d="M653,-178L513,-201L655,-78Z" fill="#be5656" stroke="#be5656" stroke-width="1.51"/><path d="M513,-201L504,-48L655,-78Z" fill="#bf5958" stroke="#bf5958" stroke-width="1.51"/><path d="M502,851L450,983L657,902Z" fill="#844b4b" stroke="#844b4b" stroke-width="1.51"/><path d="M633,729L530,775L657,902Z" fill="#8a4e4d" stroke="#8a4e4d" stroke-width="1.51"/><path d="M530,775L502,851L657,902Z" fill="#884d4d" stroke="#884d4d" stroke-width="1.51"/><path d="M657,902L450,983L664,1013Z" fill="#7f4949" stroke="#7f4949" stroke-width="1.51"/><path d="M450,983L595,1115L664,1013Z" fill="#7b4747" stroke="#7b4747" stroke-width="1.51"/><path d="M450,983L509,1116L595,1115Z" fill="#7c4746" stroke="#7c4746" stroke-width="1.51"/><path d="M604,200L509,296L635,330Z" fill="#af5959" stroke="#af5959" stroke-width="1.51"/><path d="M509,296L510,490L635,330Z" fill="#ab5858" stroke="#ab5858" stroke-width="1.51"/><path d="M448,76L523,220L604,200Z" fill="#b65b5b" stroke="#b65b5b" stroke-width="1.51"/><path d="M523,220L509,296L604,200Z" fill="#b25a5a" stroke="#b25a5a" stroke-width="1.51"/><path d="M595,1115L509,1116L612,1274Z" fill="#774544" stroke="#774544" stroke-width="1.51"/><path d="M448,76L604,200L626,55Z" fill="#b75d5c" stroke="#b75d5c" stroke-width="1.51"/><path d="M585,617L530,775L633,729Z" fill="#915251" stroke="#915251" stroke-width="1.51"/><path d="M510,490L585,617L633,502Z" fill="#9e5554" stroke="#9e5554" stroke-width="1.51"/><path d="M509,1116L481,1318L612,1274Z" fill="#774343" stroke="#774343" stroke-width="1.51"/><path d="M504,-48L448,76L626,55Z" fill="#bb5d5c" stroke="#bb5d5c" stroke-width="1.51"/><path d="M465,648L530,775L585,617Z" fill="#955352" stroke="#955352" stroke-width="1.51"/><path d="M510,490L465,648L585,617Z" fill="#9c5454" stroke="#9c5454" stroke-width="1.51"/><path d="M355,1270L244,1298L481,1318Z" fill="#7a4444" stroke="#7a4444" stroke-width="1.51"/><path d="M383,1174L481,1318L509,1116Z" fill="#7a4544" stroke="#7a4544" stroke-width="1.51"/><path d="M370,590L465,648L510,490Z" fill="#9f5655" stroke="#9f5655" stroke-width="1.51"/><path d="M509,296L331,356L510,490Z" fill="#ae5959" stroke="#ae5959" stroke-width="1.51"/><path d="M331,356L317,434L510,490Z" fill="#ac5958" stroke="#ac5958" stroke-width="1.51"/><path d="M363,-91L504,-48L513,-201Z" fill="#c25959" stroke="#c25959" stroke-width="1.51"/><path d="M448,76L391,234L523,220Z" fill="#b75d5c" stroke="#b75d5c" stroke-width="1.51"/><path d="M395,745L502,851L530,775Z" fill="#8f504f" stroke="#8f504f" stroke-width="1.51"/><path d="M465,648L395,745L530,775Z" fill="#945352" stroke="#945352" stroke-width="1.51"/><path d="M383,1174L355,1270L481,1318Z" fill="#7a4544" stroke="#7a4544" stroke-width="1.51"/><path d="M391,234L509,296L523,220Z" fill="#b35b5a" stroke="#b35b5a" stroke-width="1.51"/><path d="M365,878L450,983L502,851Z" fill="#884d4c" stroke="#884d4c" stroke-width="1.51"/><path d="M380,60L448,76L504,-48Z" fill="#be5e5d" stroke="#be5e5d" stroke-width="1.51"/><path d="M450,983L383,1174L509,1116Z" fill="#7d4847" stroke="#7d4847" stroke-width="1.51"/><path d="M391,234L331,356L509,296Z" fill="#b35b5b" stroke="#b35b5b" stroke-width="1.51"/><path d="M335,-248L363,-91L513,-201Z" fill="#c55857" stroke="#c55857" stroke-width="1.51"/><path d="M317,434L370,590L510,490Z" fill="#a65757" stroke="#a65757" stroke-width="1.51"/><path d="M311,1028L383,1174L450,983Z" fill="#804949" stroke="#804949" stroke-width="1.51"/><path d="M395,745L365,878L502,851Z" fill="#8e504f" stroke="#8e504f" stroke-width="1.51"/><path d="M363,-91L380,60L504,-48Z" fill="#c15d5d" stroke="#c15d5d" stroke-width="1.51"/><path d="M380,60L391,234L448,76Z" fill="#bb5e5e" stroke="#bb5e5e" stroke-width="1.51"/><path d="M370,590L395,745L465,648Z" fill="#9a5554" stroke="#9a5554" stroke-width="1.51"/><path d="M365,878L311,1028L450,983Z" fill="#854c4b" stroke="#854c4b" stroke-width="1.51"/><path d="M363,-91L239,39L380,60Z" fill="#c35f5e" stroke="#c35f5e" stroke-width="1.51"/><path d="M239,39L259,204L380,60Z" fill="#c0605f" stroke="#c0605f" stroke-width="1.51"/><path d="M311,1028L221,1137L383,1174Z" fill="#814948" stroke="#814948" stroke-width="1.51"/><path d="M261,329L331,356L391,234Z" fill="#b55b5b" stroke="#b55b5b" stroke-width="1.51"/><path d="M259,204L261,329L391,234Z" fill="#b85c5c" stroke="#b85c5c" stroke-width="1.51"/><path d="M380,60L259,204L391,234Z" fill="#bb5e5d" stroke="#bb5e5d" stroke-width="1.51"/><path d="M370,590L260,697L395,745Z" fill="#9b5554" stroke="#9b5554" stroke-width="1.51"/><path d="M260,697L365,878L395,745Z" fill="#945252" stroke="#945252" stroke-width="1.51"/><path d="M335,-248L175,-165L363,-91Z" fill="#c85a59" stroke="#c85a59" stroke-width="1.51"/><path d="M202,920L311,1028L365,878Z" fill="#894d4d" stroke="#894d4d" stroke-width="1.51"/><path d="M317,434L192,491L370,590Z" fill="#a95958" stroke="#a95958" stroke-width="1.51"/><path d="M192,491L198,595L370,590Z" fill="#a75857" stroke="#a75857" stroke-width="1.51"/><path d="M221,1137L355,1270L383,1174Z" fill="#7e4746" stroke="#7e4746" stroke-width="1.51"/><path d="M260,697L202,920L365,878Z" fill="#925150" stroke="#925150" stroke-width="1.51"/><path d="M221,1137L244,1298L355,1270Z" fill="#7e4646" stroke="#7e4646" stroke-width="1.51"/><path d="M187,-50L239,39L363,-91Z" fill="#c65e5d" stroke="#c65e5d" stroke-width="1.51"/><path d="M198,595L260,697L370,590Z" fill="#a15756" stroke="#a15756" stroke-width="1.51"/><path d="M175,-165L187,-50L363,-91Z" fill="#c85c5b" stroke="#c85c5b" stroke-width="1.51"/><path d="M43,-233L175,-165L335,-248Z" fill="#cc5757" stroke="#cc5757" stroke-width="1.51"/><path d="M202,920L186,982L311,1028Z" fill="#894d4c" stroke="#894d4c" stroke-width="1.51"/><path d="M261,329L317,434L331,356Z" fill="#b35b5a" stroke="#b35b5a" stroke-width="1.51"/><path d="M115,719L202,920L260,697Z" fill="#975252" stroke="#975252" stroke-width="1.51"/><path d="M261,329L192,491L317,434Z" fill="#b15b5a" stroke="#b15b5a" stroke-width="1.51"/><path d="M186,982L221,1137L311,1028Z" fill="#844b4a" stroke="#844b4a" stroke-width="1.51"/><path d="M127,297L115,485L192,491Z" fill="#b35958" stroke="#b35958" stroke-width="1.51"/><path d="M115,719L56,875L202,920Z" fill="#954f4e" stroke="#954f4e" stroke-width="1.51"/><path d="M221,1137L77,1157L244,1298Z" fill="#824746" stroke="#824746" stroke-width="1.51"/><path d="M77,1157L56,1288L244,1298Z" fill="#824544" stroke="#824544" stroke-width="1.51"/><path d="M239,39L90,79L259,204Z" fill="#c2605f" stroke="#c2605f" stroke-width="1.51"/><path d="M90,79L77,241L259,204Z" fill="#c05d5d" stroke="#c05d5d" stroke-width="1.51"/><path d="M198,595L115,719L260,697Z" fill="#a05555" stroke="#a05555" stroke-width="1.51"/><path d="M259,204L127,297L261,329Z" fill="#ba5d5c" stroke="#ba5d5c" stroke-width="1.51"/><path d="M127,297L192,491L261,329Z" fill="#b65b5a" stroke="#b65b5a" stroke-width="1.51"/><path d="M77,241L127,297L259,204Z" fill="#bc5c5c" stroke="#bc5c5c" stroke-width="1.51"/><path d="M186,982L82,1045L221,1137Z" fill="#864949" stroke="#864949" stroke-width="1.51"/><path d="M187,-50L90,79L239,39Z" fill="#c65f5f" stroke="#c65f5f" stroke-width="1.51"/><path d="M82,1045L77,1157L221,1137Z" fill="#854847" stroke="#854847" stroke-width="1.51"/><path d="M175,-165L44,-61L187,-50Z" fill="#ca5b5a" stroke="#ca5b5a" stroke-width="1.51"/><path d="M192,491L115,485L198,595Z" fill="#ab5857" stroke="#ab5857" stroke-width="1.51"/><path d="M42,625L115,719L198,595Z" fill="#a35454" stroke="#a35454" stroke-width="1.51"/><path d="M56,875L186,982L202,920Z" fill="#8e4d4c" stroke="#8e4d4c" stroke-width="1.51"/><path d="M44,-61L90,79L187,-50Z" fill="#c95d5c" stroke="#c95d5c" stroke-width="1.51"/><path d="M115,485L42,625L198,595Z" fill="#a95655" stroke="#a95655" stroke-width="1.51"/><path d="M56,875L82,1045L186,982Z" fill="#8c4b4a" stroke="#8c4b4a" stroke-width="1.51"/><path d="M43,-233L44,-61L175,-165Z" fill="#cc5856" stroke="#cc5856" stroke-width="1.51"/><path d="M-51,100L77,241L90,79Z" fill="#c45c5b" stroke="#c45c5b" stroke-width="1.51"/><path d="M-10,716L56,875L115,719Z" fill="#9b514f" stroke="#9b514f" stroke-width="1.51"/><path d="M-20,570L42,625L115,485Z" fill="#ab5454" stroke="#ab5454" stroke-width="1.51"/><path d="M-40,356L-53,448L115,485Z" fill="#b55656" stroke="#b55656" stroke-width="1.51"/><path d="M-40,356L115,485L127,297Z" fill="#b85858" stroke="#b85858" stroke-width="1.51"/><path d="M77,241L-40,356L127,297Z" fill="#bb5a59" stroke="#bb5a59" stroke-width="1.51"/><path d="M56,875L-52,908L82,1045Z" fill="#8f4a49" stroke="#8f4a49" stroke-width="1.51"/><path d="M42,625L-10,716L115,719Z" fill="#a15352" stroke="#a15352" stroke-width="1.51"/><path d="M-53,448L-20,570L115,485Z" fill="#b05554" stroke="#b05554" stroke-width="1.51"/><path d="M-67,1129L56,1288L77,1157Z" fill="#854443" stroke="#854443" stroke-width="1.51"/><path d="M-51,100L-80,159L77,241Z" fill="#c35a5a" stroke="#c35a5a" stroke-width="1.51"/><path d="M-52,908L-35,1057L82,1045Z" fill="#8b4746" stroke="#8b4746" stroke-width="1.51"/><path d="M-35,1057L77,1157L82,1045Z" fill="#874745" stroke="#874745" stroke-width="1.51"/><path d="M44,-61L-51,100L90,79Z" fill="#c85d5c" stroke="#c85d5c" stroke-width="1.51"/><path d="M43,-233L-78,-238L44,-61Z" fill="#ce5554" stroke="#ce5554" stroke-width="1.51"/><path d="M-78,-238L-96,-69L44,-61Z" fill="#ce5655" stroke="#ce5655" stroke-width="1.51"/><path d="M-35,1057L-67,1129L77,1157Z" fill="#884544" stroke="#884544" stroke-width="1.51"/><path d="M-10,716L-52,908L56,875Z" fill="#974d4b" stroke="#974d4b" stroke-width="1.51"/><path d="M-80,159L-40,356L77,241Z" fill="#c05958" stroke="#c05958" stroke-width="1.51"/><path d="M-96,-69L-51,100L44,-61Z" fill="#cb5a59" stroke="#cb5a59" stroke-width="1.51"/><path d="M-67,1129L-75,1318L56,1288Z" fill="#844241" stroke="#844241" stroke-width="1.51"/><path d="M-20,570L-10,716L42,625Z" fill="#a65351" stroke="#a65351" stroke-width="1.51"/><path d="M-167,-169L-96,-69L-78,-238Z" fill="#d05352" stroke="#d05352" stroke-width="1.51"/><path d="M-205,1245L-75,1318L-67,1129Z" fill="#86413f" stroke="#86413f" stroke-width="1.51"/><path d="M-196,779L-191,866L-52,908Z" fill="#984a48" stroke="#984a48" stroke-width="1.51"/><path d="M-96,-69L-157,-49L-51,100Z" fill="#cc5857" stroke="#cc5857" stroke-width="1.51"/><path d="M-80,159L-172,236L-40,356Z" fill="#c15756" stroke="#c15756" stroke-width="1.51"/><path d="M-172,236L-174,334L-40,356Z" fill="#bf5555" stroke="#bf5555" stroke-width="1.51"/><path d="M-52,908L-170,1045L-35,1057Z" fill="#8c4644" stroke="#8c4644" stroke-width="1.51"/><path d="M-20,570L-215,626L-10,716Z" fill="#a75250" stroke="#a75250" stroke-width="1.51"/><path d="M-215,626L-196,779L-10,716Z" fill="#a34f4d" stroke="#a34f4d" stroke-width="1.51"/><path d="M-196,779L-52,908L-10,716Z" fill="#9b4d4b" stroke="#9b4d4b" stroke-width="1.51"/><path d="M-157,-49L-169,98L-51,100Z" fill="#cb5a59" stroke="#cb5a59" stroke-width="1.51"/><path d="M-53,448L-173,434L-20,570Z" fill="#b25453" stroke="#b25453" stroke-width="1.51"/><path d="M-173,434L-215,626L-20,570Z" fill="#af5250" stroke="#af5250" stroke-width="1.51"/><path d="M-173,434L-53,448L-40,356Z" fill="#b85554" stroke="#b85554" stroke-width="1.51"/><path d="M-170,1045L-67,1129L-35,1057Z" fill="#8a4442" stroke="#8a4442" stroke-width="1.51"/><path d="M-174,334L-173,434L-40,356Z" fill="#bc5454" stroke="#bc5454" stroke-width="1.51"/><path d="M-223,1163L-205,1245L-67,1129Z" fill="#88413f" stroke="#88413f" stroke-width="1.51"/><path d="M-191,866L-170,1045L-52,908Z" fill="#924845" stroke="#924845" stroke-width="1.51"/><path d="M-169,98L-80,159L-51,100Z" fill="#c75958" stroke="#c75958" stroke-width="1.51"/><path d="M-170,1045L-223,1163L-67,1129Z" fill="#8a4341" stroke="#8a4341" stroke-width="1.51"/><path d="M-169,98L-172,236L-80,159Z" fill="#c65757" stroke="#c65757" stroke-width="1.51"/><path d="M-167,-169L-157,-49L-96,-69Z" fill="#cf5553" stroke="#cf5553" stroke-width="1.51"/><path d="M-167,-169L-169,98L-157,-49Z" fill="#ce5655" stroke="#ce5655" stroke-width="1.51"/><path d="M-191,866L-223,1163L-170,1045Z" fill="#8d4441" stroke="#8d4441" stroke-width="1.51"/><path d="M-215,626L-169,98L-167,-169Z" fill="#c65756" stroke="#c65756" stroke-width="1.51"/><path d="M-215,626L-172,236L-169,98Z" fill="#bf5453" stroke="#bf5453" stroke-width="1.51"/><path d="M-174,334L-215,626L-173,434Z" fill="#b65251" stroke="#b65251" stroke-width="1.51"/><path d="M-215,626L-174,334L-172,236Z" fill="#bb5252" stroke="#bb5252" stroke-width="1.51"/><path d="M-196,779L-223,1163L-191,866Z" fill="#944744" stroke="#944744" stroke-width="1.51"/><path d="M-215,626L-223,1163L-196,779Z" fill="#9a4947" stroke="#9a4947" stroke-width="1.51"/></svg>